<mxfile host="app.diagrams.net" modified="2024-01-22T07:31:58.430Z" agent="Mozilla/5.0 (Windows NT 10.0; Win64; x64) AppleWebKit/537.36 (KHTML, like Gecko) Chrome/115.0.0.0 Safari/537.36" etag="JSXx4f2Z3Cfj3QMneslr" version="22.1.21" type="github">
  <diagram id="C5RBs43oDa-KdzZeNtuy" name="Page-1">
    <mxGraphModel dx="1306" dy="790" grid="1" gridSize="10" guides="1" tooltips="1" connect="1" arrows="1" fold="1" page="1" pageScale="1" pageWidth="827" pageHeight="1169" math="0" shadow="0">
      <root>
        <mxCell id="WIyWlLk6GJQsqaUBKTNV-0" />
        <mxCell id="WIyWlLk6GJQsqaUBKTNV-1" parent="WIyWlLk6GJQsqaUBKTNV-0" />
        <mxCell id="os6N13HGExZFHYIwGGnI-4" style="edgeStyle=orthogonalEdgeStyle;rounded=0;orthogonalLoop=1;jettySize=auto;html=1;entryX=0.5;entryY=0;entryDx=0;entryDy=0;" parent="WIyWlLk6GJQsqaUBKTNV-1" source="os6N13HGExZFHYIwGGnI-0" target="os6N13HGExZFHYIwGGnI-3" edge="1">
          <mxGeometry relative="1" as="geometry" />
        </mxCell>
        <mxCell id="os6N13HGExZFHYIwGGnI-0" value="ldp_start()" style="ellipse;whiteSpace=wrap;html=1;" parent="WIyWlLk6GJQsqaUBKTNV-1" vertex="1">
          <mxGeometry x="339" y="28" width="120" height="80" as="geometry" />
        </mxCell>
        <mxCell id="os6N13HGExZFHYIwGGnI-6" style="edgeStyle=orthogonalEdgeStyle;rounded=0;orthogonalLoop=1;jettySize=auto;html=1;entryX=0.5;entryY=0;entryDx=0;entryDy=0;" parent="WIyWlLk6GJQsqaUBKTNV-1" source="os6N13HGExZFHYIwGGnI-3" target="os6N13HGExZFHYIwGGnI-5" edge="1">
          <mxGeometry relative="1" as="geometry" />
        </mxCell>
        <mxCell id="os6N13HGExZFHYIwGGnI-3" value="Config LDP" style="rounded=0;whiteSpace=wrap;html=1;" parent="WIyWlLk6GJQsqaUBKTNV-1" vertex="1">
          <mxGeometry x="339" y="148" width="120" height="60" as="geometry" />
        </mxCell>
        <mxCell id="os6N13HGExZFHYIwGGnI-11" style="edgeStyle=orthogonalEdgeStyle;rounded=0;orthogonalLoop=1;jettySize=auto;html=1;entryX=0.5;entryY=0;entryDx=0;entryDy=0;" parent="WIyWlLk6GJQsqaUBKTNV-1" source="os6N13HGExZFHYIwGGnI-5" edge="1">
          <mxGeometry relative="1" as="geometry">
            <mxPoint x="559" y="368" as="targetPoint" />
          </mxGeometry>
        </mxCell>
        <mxCell id="os6N13HGExZFHYIwGGnI-5" value="ldp_udp_read()" style="rounded=0;whiteSpace=wrap;html=1;" parent="WIyWlLk6GJQsqaUBKTNV-1" vertex="1">
          <mxGeometry x="499" y="238" width="120" height="60" as="geometry" />
        </mxCell>
        <mxCell id="os6N13HGExZFHYIwGGnI-7" value="LDP UDP hello send" style="rounded=0;whiteSpace=wrap;html=1;" parent="WIyWlLk6GJQsqaUBKTNV-1" vertex="1">
          <mxGeometry x="179" y="238" width="120" height="60" as="geometry" />
        </mxCell>
        <mxCell id="os6N13HGExZFHYIwGGnI-8" style="edgeStyle=orthogonalEdgeStyle;rounded=0;orthogonalLoop=1;jettySize=auto;html=1;entryX=0.442;entryY=0;entryDx=0;entryDy=0;entryPerimeter=0;" parent="WIyWlLk6GJQsqaUBKTNV-1" source="os6N13HGExZFHYIwGGnI-3" target="os6N13HGExZFHYIwGGnI-7" edge="1">
          <mxGeometry relative="1" as="geometry" />
        </mxCell>
        <mxCell id="os6N13HGExZFHYIwGGnI-13" style="edgeStyle=orthogonalEdgeStyle;rounded=0;orthogonalLoop=1;jettySize=auto;html=1;entryX=1;entryY=0.5;entryDx=0;entryDy=0;exitX=1;exitY=0.5;exitDx=0;exitDy=0;" parent="WIyWlLk6GJQsqaUBKTNV-1" source="os6N13HGExZFHYIwGGnI-12" target="os6N13HGExZFHYIwGGnI-5" edge="1">
          <mxGeometry relative="1" as="geometry">
            <mxPoint x="664" y="273" as="targetPoint" />
            <mxPoint x="684" y="433" as="sourcePoint" />
            <Array as="points">
              <mxPoint x="689" y="428" />
              <mxPoint x="689" y="268" />
            </Array>
          </mxGeometry>
        </mxCell>
        <mxCell id="os6N13HGExZFHYIwGGnI-15" style="edgeStyle=orthogonalEdgeStyle;rounded=0;orthogonalLoop=1;jettySize=auto;html=1;entryX=0.5;entryY=0;entryDx=0;entryDy=0;" parent="WIyWlLk6GJQsqaUBKTNV-1" source="os6N13HGExZFHYIwGGnI-12" target="os6N13HGExZFHYIwGGnI-14" edge="1">
          <mxGeometry relative="1" as="geometry" />
        </mxCell>
        <mxCell id="os6N13HGExZFHYIwGGnI-12" value="LDP_MESSAGE_HELLO" style="rhombus;whiteSpace=wrap;html=1;" parent="WIyWlLk6GJQsqaUBKTNV-1" vertex="1">
          <mxGeometry x="479" y="368" width="160" height="120" as="geometry" />
        </mxCell>
        <mxCell id="os6N13HGExZFHYIwGGnI-19" style="edgeStyle=orthogonalEdgeStyle;rounded=0;orthogonalLoop=1;jettySize=auto;html=1;entryX=0.5;entryY=0;entryDx=0;entryDy=0;" parent="WIyWlLk6GJQsqaUBKTNV-1" source="os6N13HGExZFHYIwGGnI-14" target="os6N13HGExZFHYIwGGnI-18" edge="1">
          <mxGeometry relative="1" as="geometry" />
        </mxCell>
        <mxCell id="os6N13HGExZFHYIwGGnI-14" value="ldp_process_hello_v4()" style="rounded=0;whiteSpace=wrap;html=1;" parent="WIyWlLk6GJQsqaUBKTNV-1" vertex="1">
          <mxGeometry x="494" y="548" width="130" height="60" as="geometry" />
        </mxCell>
        <mxCell id="os6N13HGExZFHYIwGGnI-16" value="N" style="text;html=1;strokeColor=none;fillColor=none;align=center;verticalAlign=middle;whiteSpace=wrap;rounded=0;" parent="WIyWlLk6GJQsqaUBKTNV-1" vertex="1">
          <mxGeometry x="629" y="398" width="60" height="30" as="geometry" />
        </mxCell>
        <mxCell id="os6N13HGExZFHYIwGGnI-17" value="Y" style="text;html=1;strokeColor=none;fillColor=none;align=center;verticalAlign=middle;whiteSpace=wrap;rounded=0;" parent="WIyWlLk6GJQsqaUBKTNV-1" vertex="1">
          <mxGeometry x="539" y="498" width="60" height="30" as="geometry" />
        </mxCell>
        <mxCell id="os6N13HGExZFHYIwGGnI-22" style="edgeStyle=orthogonalEdgeStyle;rounded=0;orthogonalLoop=1;jettySize=auto;html=1;exitX=0.5;exitY=1;exitDx=0;exitDy=0;entryX=0.5;entryY=0;entryDx=0;entryDy=0;" parent="WIyWlLk6GJQsqaUBKTNV-1" source="os6N13HGExZFHYIwGGnI-18" target="os6N13HGExZFHYIwGGnI-21" edge="1">
          <mxGeometry relative="1" as="geometry" />
        </mxCell>
        <mxCell id="os6N13HGExZFHYIwGGnI-18" value="Targeted hello" style="rhombus;whiteSpace=wrap;html=1;" parent="WIyWlLk6GJQsqaUBKTNV-1" vertex="1">
          <mxGeometry x="479" y="658" width="160" height="80" as="geometry" />
        </mxCell>
        <mxCell id="os6N13HGExZFHYIwGGnI-21" value="ldp is configured" style="rhombus;whiteSpace=wrap;html=1;" parent="WIyWlLk6GJQsqaUBKTNV-1" vertex="1">
          <mxGeometry x="479" y="778" width="160" height="80" as="geometry" />
        </mxCell>
        <mxCell id="os6N13HGExZFHYIwGGnI-23" value="Y" style="text;html=1;strokeColor=none;fillColor=none;align=center;verticalAlign=middle;whiteSpace=wrap;rounded=0;" parent="WIyWlLk6GJQsqaUBKTNV-1" vertex="1">
          <mxGeometry x="539" y="738" width="60" height="30" as="geometry" />
        </mxCell>
        <mxCell id="os6N13HGExZFHYIwGGnI-25" value="" style="endArrow=none;html=1;rounded=0;" parent="WIyWlLk6GJQsqaUBKTNV-1" edge="1">
          <mxGeometry width="50" height="50" relative="1" as="geometry">
            <mxPoint x="639" y="818" as="sourcePoint" />
            <mxPoint x="689" y="418" as="targetPoint" />
            <Array as="points">
              <mxPoint x="689" y="818" />
            </Array>
          </mxGeometry>
        </mxCell>
        <mxCell id="os6N13HGExZFHYIwGGnI-26" value="N" style="text;html=1;strokeColor=none;fillColor=none;align=center;verticalAlign=middle;whiteSpace=wrap;rounded=0;" parent="WIyWlLk6GJQsqaUBKTNV-1" vertex="1">
          <mxGeometry x="629" y="788" width="60" height="30" as="geometry" />
        </mxCell>
        <mxCell id="os6N13HGExZFHYIwGGnI-36" style="edgeStyle=orthogonalEdgeStyle;rounded=0;orthogonalLoop=1;jettySize=auto;html=1;entryX=0.5;entryY=0;entryDx=0;entryDy=0;" parent="WIyWlLk6GJQsqaUBKTNV-1" source="os6N13HGExZFHYIwGGnI-27" target="os6N13HGExZFHYIwGGnI-35" edge="1">
          <mxGeometry relative="1" as="geometry" />
        </mxCell>
        <mxCell id="os6N13HGExZFHYIwGGnI-27" value="Lookup in the hello_adjacencise&amp;nbsp; table" style="rounded=0;whiteSpace=wrap;html=1;" parent="WIyWlLk6GJQsqaUBKTNV-1" vertex="1">
          <mxGeometry x="212" y="676" width="120" height="60" as="geometry" />
        </mxCell>
        <mxCell id="os6N13HGExZFHYIwGGnI-29" style="edgeStyle=orthogonalEdgeStyle;rounded=0;orthogonalLoop=1;jettySize=auto;html=1;entryX=1.033;entryY=0.367;entryDx=0;entryDy=0;entryPerimeter=0;" parent="WIyWlLk6GJQsqaUBKTNV-1" source="os6N13HGExZFHYIwGGnI-18" target="os6N13HGExZFHYIwGGnI-27" edge="1">
          <mxGeometry relative="1" as="geometry" />
        </mxCell>
        <mxCell id="os6N13HGExZFHYIwGGnI-30" value="N" style="text;html=1;strokeColor=none;fillColor=none;align=center;verticalAlign=middle;whiteSpace=wrap;rounded=0;" parent="WIyWlLk6GJQsqaUBKTNV-1" vertex="1">
          <mxGeometry x="423" y="668" width="60" height="30" as="geometry" />
        </mxCell>
        <mxCell id="os6N13HGExZFHYIwGGnI-31" value="" style="endArrow=none;html=1;rounded=0;" parent="WIyWlLk6GJQsqaUBKTNV-1" edge="1">
          <mxGeometry width="50" height="50" relative="1" as="geometry">
            <mxPoint x="419" y="698" as="sourcePoint" />
            <mxPoint x="479" y="818" as="targetPoint" />
            <Array as="points">
              <mxPoint x="419" y="818" />
            </Array>
          </mxGeometry>
        </mxCell>
        <mxCell id="os6N13HGExZFHYIwGGnI-32" value="Y" style="text;html=1;strokeColor=none;fillColor=none;align=center;verticalAlign=middle;whiteSpace=wrap;rounded=0;" parent="WIyWlLk6GJQsqaUBKTNV-1" vertex="1">
          <mxGeometry x="423" y="788" width="60" height="30" as="geometry" />
        </mxCell>
        <mxCell id="os6N13HGExZFHYIwGGnI-34" value="&lt;h1&gt;Session create&lt;/h1&gt;&lt;div&gt;Ldp use UDP socket to sent and read hello message&lt;/div&gt;&lt;div&gt;Ldp use TCP socket to establish session&lt;/div&gt;" style="text;html=1;strokeColor=none;fillColor=none;spacing=5;spacingTop=-20;whiteSpace=wrap;overflow=hidden;rounded=0;" parent="WIyWlLk6GJQsqaUBKTNV-1" vertex="1">
          <mxGeometry x="30" y="20" width="190" height="120" as="geometry" />
        </mxCell>
        <mxCell id="os6N13HGExZFHYIwGGnI-43" style="edgeStyle=orthogonalEdgeStyle;rounded=0;orthogonalLoop=1;jettySize=auto;html=1;entryX=0.5;entryY=0;entryDx=0;entryDy=0;" parent="WIyWlLk6GJQsqaUBKTNV-1" source="os6N13HGExZFHYIwGGnI-35" target="os6N13HGExZFHYIwGGnI-41" edge="1">
          <mxGeometry relative="1" as="geometry" />
        </mxCell>
        <mxCell id="os6N13HGExZFHYIwGGnI-47" style="edgeStyle=orthogonalEdgeStyle;rounded=0;orthogonalLoop=1;jettySize=auto;html=1;exitX=1;exitY=0.5;exitDx=0;exitDy=0;entryX=0.5;entryY=0;entryDx=0;entryDy=0;" parent="WIyWlLk6GJQsqaUBKTNV-1" source="os6N13HGExZFHYIwGGnI-35" target="os6N13HGExZFHYIwGGnI-42" edge="1">
          <mxGeometry relative="1" as="geometry" />
        </mxCell>
        <mxCell id="os6N13HGExZFHYIwGGnI-35" value="found" style="rhombus;whiteSpace=wrap;html=1;" parent="WIyWlLk6GJQsqaUBKTNV-1" vertex="1">
          <mxGeometry x="213" y="778" width="118" height="80" as="geometry" />
        </mxCell>
        <mxCell id="os6N13HGExZFHYIwGGnI-57" value="" style="edgeStyle=orthogonalEdgeStyle;rounded=0;orthogonalLoop=1;jettySize=auto;html=1;" parent="WIyWlLk6GJQsqaUBKTNV-1" source="os6N13HGExZFHYIwGGnI-41" target="os6N13HGExZFHYIwGGnI-56" edge="1">
          <mxGeometry relative="1" as="geometry" />
        </mxCell>
        <mxCell id="os6N13HGExZFHYIwGGnI-41" value="create new adjacency&lt;br&gt;and set holdtime" style="rounded=0;whiteSpace=wrap;html=1;" parent="WIyWlLk6GJQsqaUBKTNV-1" vertex="1">
          <mxGeometry x="92" y="907" width="120" height="60" as="geometry" />
        </mxCell>
        <mxCell id="os6N13HGExZFHYIwGGnI-50" style="edgeStyle=orthogonalEdgeStyle;rounded=0;orthogonalLoop=1;jettySize=auto;html=1;entryX=0;entryY=0.5;entryDx=0;entryDy=0;" parent="WIyWlLk6GJQsqaUBKTNV-1" source="os6N13HGExZFHYIwGGnI-42" target="os6N13HGExZFHYIwGGnI-51" edge="1">
          <mxGeometry relative="1" as="geometry">
            <mxPoint x="411.5" y="1005" as="targetPoint" />
            <Array as="points">
              <mxPoint x="410" y="1048" />
            </Array>
          </mxGeometry>
        </mxCell>
        <mxCell id="os6N13HGExZFHYIwGGnI-42" value="Set holdtime" style="rounded=0;whiteSpace=wrap;html=1;" parent="WIyWlLk6GJQsqaUBKTNV-1" vertex="1">
          <mxGeometry x="352" y="906" width="120" height="60" as="geometry" />
        </mxCell>
        <mxCell id="os6N13HGExZFHYIwGGnI-45" value="N" style="text;html=1;strokeColor=none;fillColor=none;align=center;verticalAlign=middle;whiteSpace=wrap;rounded=0;" parent="WIyWlLk6GJQsqaUBKTNV-1" vertex="1">
          <mxGeometry x="150" y="787" width="60" height="30" as="geometry" />
        </mxCell>
        <mxCell id="os6N13HGExZFHYIwGGnI-46" value="Y" style="text;html=1;strokeColor=none;fillColor=none;align=center;verticalAlign=middle;whiteSpace=wrap;rounded=0;" parent="WIyWlLk6GJQsqaUBKTNV-1" vertex="1">
          <mxGeometry x="340" y="788" width="60" height="30" as="geometry" />
        </mxCell>
        <mxCell id="os6N13HGExZFHYIwGGnI-51" value="Execute LDP_EVENT_Start or return depend on&lt;br&gt;session-&amp;gt;grflags" style="rounded=0;whiteSpace=wrap;html=1;" parent="WIyWlLk6GJQsqaUBKTNV-1" vertex="1">
          <mxGeometry x="487" y="1017.5" width="159" height="60" as="geometry" />
        </mxCell>
        <mxCell id="os6N13HGExZFHYIwGGnI-55" value="" style="endArrow=none;html=1;rounded=0;entryX=1;entryY=0.5;entryDx=0;entryDy=0;exitX=1;exitY=0.5;exitDx=0;exitDy=0;" parent="WIyWlLk6GJQsqaUBKTNV-1" source="os6N13HGExZFHYIwGGnI-51" target="os6N13HGExZFHYIwGGnI-26" edge="1">
          <mxGeometry width="50" height="50" relative="1" as="geometry">
            <mxPoint x="675" y="1047.5" as="sourcePoint" />
            <mxPoint x="686" y="818" as="targetPoint" />
            <Array as="points">
              <mxPoint x="687" y="1048" />
            </Array>
          </mxGeometry>
        </mxCell>
        <mxCell id="os6N13HGExZFHYIwGGnI-59" style="edgeStyle=orthogonalEdgeStyle;rounded=0;orthogonalLoop=1;jettySize=auto;html=1;" parent="WIyWlLk6GJQsqaUBKTNV-1" source="os6N13HGExZFHYIwGGnI-56" target="os6N13HGExZFHYIwGGnI-58" edge="1">
          <mxGeometry relative="1" as="geometry" />
        </mxCell>
        <mxCell id="os6N13HGExZFHYIwGGnI-56" value="Look up session in entity" style="whiteSpace=wrap;html=1;rounded=0;" parent="WIyWlLk6GJQsqaUBKTNV-1" vertex="1">
          <mxGeometry x="92" y="1026" width="120" height="60" as="geometry" />
        </mxCell>
        <mxCell id="os6N13HGExZFHYIwGGnI-60" style="edgeStyle=orthogonalEdgeStyle;rounded=0;orthogonalLoop=1;jettySize=auto;html=1;" parent="WIyWlLk6GJQsqaUBKTNV-1" source="os6N13HGExZFHYIwGGnI-58" target="os6N13HGExZFHYIwGGnI-61" edge="1">
          <mxGeometry relative="1" as="geometry">
            <mxPoint x="320" y="1170" as="targetPoint" />
          </mxGeometry>
        </mxCell>
        <mxCell id="os6N13HGExZFHYIwGGnI-64" style="edgeStyle=orthogonalEdgeStyle;rounded=0;orthogonalLoop=1;jettySize=auto;html=1;exitX=0.5;exitY=1;exitDx=0;exitDy=0;entryX=0.5;entryY=0;entryDx=0;entryDy=0;" parent="WIyWlLk6GJQsqaUBKTNV-1" source="os6N13HGExZFHYIwGGnI-58" target="os6N13HGExZFHYIwGGnI-63" edge="1">
          <mxGeometry relative="1" as="geometry" />
        </mxCell>
        <mxCell id="os6N13HGExZFHYIwGGnI-58" value="Found" style="rhombus;whiteSpace=wrap;html=1;" parent="WIyWlLk6GJQsqaUBKTNV-1" vertex="1">
          <mxGeometry x="86" y="1130" width="131" height="80" as="geometry" />
        </mxCell>
        <mxCell id="os6N13HGExZFHYIwGGnI-61" value="ldp_session_add_adjacency()" style="rounded=0;whiteSpace=wrap;html=1;" parent="WIyWlLk6GJQsqaUBKTNV-1" vertex="1">
          <mxGeometry x="260" y="1140" width="170" height="60" as="geometry" />
        </mxCell>
        <mxCell id="os6N13HGExZFHYIwGGnI-62" value="Y" style="text;html=1;strokeColor=none;fillColor=none;align=center;verticalAlign=middle;whiteSpace=wrap;rounded=0;" parent="WIyWlLk6GJQsqaUBKTNV-1" vertex="1">
          <mxGeometry x="200" y="1139" width="60" height="30" as="geometry" />
        </mxCell>
        <mxCell id="XuDR0hsBls896ofQk4cr-2" value="" style="edgeStyle=orthogonalEdgeStyle;rounded=0;orthogonalLoop=1;jettySize=auto;html=1;" edge="1" parent="WIyWlLk6GJQsqaUBKTNV-1" source="os6N13HGExZFHYIwGGnI-63" target="XuDR0hsBls896ofQk4cr-1">
          <mxGeometry relative="1" as="geometry" />
        </mxCell>
        <mxCell id="os6N13HGExZFHYIwGGnI-63" value="ldp_session_create()" style="rounded=0;whiteSpace=wrap;html=1;" parent="WIyWlLk6GJQsqaUBKTNV-1" vertex="1">
          <mxGeometry x="67" y="1250" width="170" height="60" as="geometry" />
        </mxCell>
        <mxCell id="XuDR0hsBls896ofQk4cr-0" value="N" style="text;html=1;strokeColor=none;fillColor=none;align=center;verticalAlign=middle;whiteSpace=wrap;rounded=0;" vertex="1" parent="WIyWlLk6GJQsqaUBKTNV-1">
          <mxGeometry x="152" y="1210" width="60" height="30" as="geometry" />
        </mxCell>
        <mxCell id="XuDR0hsBls896ofQk4cr-1" value="LDP_EVENT_Start" style="whiteSpace=wrap;html=1;rounded=0;" vertex="1" parent="WIyWlLk6GJQsqaUBKTNV-1">
          <mxGeometry x="331" y="1250" width="120" height="60" as="geometry" />
        </mxCell>
      </root>
    </mxGraphModel>
  </diagram>
</mxfile>
